<svg xmlns="http://www.w3.org/2000/svg" xmlns:xlink="http://www.w3.org/1999/xlink" viewBox="0 0 400.33 400.33"><defs><style>.cls-1{fill:url(#Degradado_sin_nombre_16);}.cls-2{fill:#fff;}</style><linearGradient id="Degradado_sin_nombre_16" y1="200.17" x2="400.33" y2="200.17" gradientUnits="userSpaceOnUse"><stop offset="0.04" stop-color="#1d67f4"/><stop offset="1" stop-color="#56f4e1"/></linearGradient></defs><g id="Capa_2" data-name="Capa 2"><g id="Capa_1-2" data-name="Capa 1"><path class="cls-1" d="M341.77,58.56c-78.08-78.08-205.13-78.08-283.21,0s-78.08,205.13,0,283.21a200.49,200.49,0,0,0,283.21,0C419.85,263.69,419.85,136.64,341.77,58.56Zm19,141.61a159.58,159.58,0,0,1-47,113.64c-62.67,62.66-164.63,62.66-227.29,0s-62.66-164.63,0-227.29A160.64,160.64,0,0,1,360.8,200.17Z"/><path class="cls-2" d="M253.79,178.25,253.68,328a138.84,138.84,0,0,0,47.74-33.32V178.25Z"/><path class="cls-2" d="M256.21,109a29.33,29.33,0,0,0-8.87,21.46,30.61,30.61,0,0,0,9,22.25A29.2,29.2,0,0,0,278,161.85a28.79,28.79,0,0,0,21.22-9,29.76,29.76,0,0,0,8.87-21.72,30.11,30.11,0,0,0-9-22,30.09,30.09,0,0,0-42.88-.18Z"/><path class="cls-2" d="M182,242.44q-6.15,4.83-16.19,4.84-9.31,0-21.31-6.42A72.32,72.32,0,0,1,123.54,224L92.28,258.07Q118.7,292.69,163,292.68q33.31,0,53.13-18.05t19.82-45q0-20.29-11-35.36t-40.38-29.59L166,155.34q-12.09-5.94-15.16-9.39a11.11,11.11,0,0,1-3.08-7.54q0-5.4,4.84-9t13.4-3.62q15.63,0,34.8,19l31.45-31.45a82.11,82.11,0,0,0-66.62-33.5q-28.84,0-47.36,17t-18.52,41q0,37.23,49.13,62L166,208.38q22.14,11.18,22.15,22.89Q188.12,237.6,182,242.44Z"/></g></g></svg>